<?xml version="1.0" standalone="no"?>
<!DOCTYPE svg PUBLIC "-//W3C//DTD SVG 20010904//EN"
 "http://www.w3.org/TR/2001/REC-SVG-20010904/DTD/svg10.dtd">
<svg version="1.0" xmlns="http://www.w3.org/2000/svg"
 width="500.000000pt" height="500.000000pt" viewBox="0 0 500.000000 500.000000"
 preserveAspectRatio="xMidYMid meet">

<g transform="translate(0.000000,500.000000) scale(0.100000,-0.100000)"
fill="#000000" stroke="none">
<path d="M1759 2993 c-13 -16 -12 -17 4 -4 9 7 17 15 17 17 0 8 -8 3 -21 -13z"/>
<path d="M750 2055 l0 -225 40 0 40 0 0 225 0 225 -40 0 -40 0 0 -225z"/>
<path d="M1258 2141 l-3 -139 -174 134 c-95 74 -177 134 -182 134 -5 0 -9 -97
-9 -221 l0 -220 43 3 42 3 0 130 c0 79 4 131 10 132 6 1 85 -56 177 -128 92
-71 170 -129 173 -129 3 0 5 99 5 220 l0 220 -40 0 -39 0 -3 -139z"/>
<path d="M1468 2264 c-52 -27 -58 -56 -58 -254 l0 -180 40 0 40 0 0 105 0 105
145 0 145 0 0 40 0 40 -145 0 -145 0 0 28 c0 49 10 52 197 52 l173 0 0 40 0
40 -182 0 c-142 -1 -189 -4 -210 -16z"/>
<path d="M1992 2265 c-59 -26 -92 -56 -117 -106 -95 -186 97 -393 285 -308 78
35 122 93 136 178 14 87 -46 194 -130 232 -49 22 -128 24 -174 4z m145 -81
c89 -43 104 -166 29 -232 -46 -40 -94 -48 -150 -23 -54 23 -78 57 -83 119 -10
107 104 183 204 136z"/>
<path d="M2300 2240 l0 -39 93 -3 92 -3 3 -182 2 -183 40 0 40 0 0 185 0 185
90 0 90 0 0 40 0 40 -225 0 -225 0 0 -40z"/>
<path d="M2873 2261 c-17 -11 -37 -29 -42 -40 -6 -11 -11 -80 -11 -161 0 -225
9 -232 272 -228 l173 3 3 38 3 37 -166 0 c-96 0 -175 4 -186 10 -15 9 -19 22
-19 65 l0 55 146 0 145 0 -3 38 -3 37 -142 3 -143 3 0 28 c0 16 6 33 13 40 8
6 79 12 183 13 l169 3 0 35 0 35 -180 3 c-164 2 -183 0 -212 -17z"/>
<path d="M3409 2253 c-74 -38 -111 -93 -117 -173 -6 -80 16 -137 72 -188 57
-53 95 -62 249 -62 l127 0 0 39 0 39 -137 4 c-125 3 -141 5 -171 26 -87 62
-81 186 10 242 29 17 51 20 166 20 l132 0 0 40 0 40 -138 0 c-131 0 -141 -1
-193 -27z"/>
<path d="M3800 2055 l0 -225 40 0 40 0 0 105 0 105 145 0 145 0 0 -105 0 -105
40 0 40 0 0 225 0 225 -40 0 -40 0 0 -80 0 -80 -145 0 -145 0 0 80 0 80 -40 0
-40 0 0 -225z"/>
<path d="M1651 1717 c-20 -37 -11 -81 17 -85 46 -7 64 31 40 83 -14 31 -41 32
-57 2z m47 -39 c-5 -34 -38 -37 -38 -4 0 20 5 26 21 26 15 0 20 -5 17 -22z"/>
<path d="M894 1705 c-7 -18 3 -35 22 -35 23 0 16 -18 -8 -23 -21 -3 -22 -4 -4
-12 22 -9 51 5 51 26 0 7 -11 19 -25 26 -24 12 -25 13 -2 13 12 0 22 5 22 10
0 16 -50 12 -56 -5z"/>
<path d="M1044 1706 c-3 -8 -4 -27 -2 -43 2 -23 8 -28 32 -28 35 0 51 23 42
58 -5 22 -12 27 -37 27 -16 0 -32 -6 -35 -14z m54 -28 c-5 -34 -38 -37 -38 -4
0 20 5 26 21 26 15 0 20 -5 17 -22z"/>
<path d="M1202 1678 c3 -39 6 -43 31 -46 15 -2 27 1 27 7 0 6 -9 11 -20 11
-16 0 -20 7 -20 35 0 19 -5 35 -11 35 -6 0 -9 -17 -7 -42z"/>
<path d="M1340 1681 c0 -31 4 -41 20 -46 30 -9 50 12 50 51 0 43 -18 45 -22 2
-4 -46 -28 -49 -28 -4 0 20 -4 36 -10 36 -5 0 -10 -18 -10 -39z"/>
<path d="M1497 1713 c-14 -13 -6 -59 14 -82 17 -21 22 -22 30 -10 14 22 11 29
-11 29 -15 0 -20 7 -20 25 0 18 5 25 20 25 11 0 20 5 20 10 0 11 -43 14 -53 3z"/>
<path d="M1804 1706 c-3 -8 -4 -27 -2 -43 2 -22 9 -29 31 -31 15 -2 27 1 27 7
0 6 -9 11 -20 11 -11 0 -20 5 -20 10 0 6 9 10 20 10 27 0 25 18 -2 23 l-23 4
23 2 c12 0 22 6 22 11 0 15 -50 12 -56 -4z"/>
<path d="M1957 1713 c-15 -15 -7 -43 13 -43 11 0 20 -4 20 -10 0 -5 -9 -10
-20 -10 -11 0 -20 -5 -20 -11 0 -6 12 -9 28 -7 37 4 44 44 10 57 -16 7 -18 10
-6 10 27 1 32 21 5 21 -13 0 -27 -3 -30 -7z"/>
<path d="M2212 1678 c3 -39 6 -43 31 -46 15 -2 27 1 27 7 0 6 -9 11 -20 11
-27 0 -25 18 3 23 22 4 22 4 -3 15 -24 10 -24 11 -2 11 34 1 26 21 -9 21 -29
0 -30 -1 -27 -42z"/>
<path d="M2360 1674 c0 -39 2 -45 14 -35 11 9 15 9 19 -1 4 -10 10 -8 21 6 16
19 16 19 16 1 0 -14 3 -16 11 -8 17 17 7 77 -13 81 -11 2 -18 -3 -18 -12 0 -9
-4 -16 -10 -16 -5 0 -10 7 -10 15 0 8 -7 15 -15 15 -11 0 -15 -12 -15 -46z"/>
<path d="M2648 1708 c7 -7 12 -24 12 -39 0 -15 5 -31 10 -34 6 -4 10 8 10 29
0 20 5 36 10 36 6 0 10 5 10 10 0 6 -14 10 -32 10 -25 0 -29 -3 -20 -12z"/>
<path d="M2790 1680 c0 -43 16 -58 48 -44 15 7 14 8 -5 11 -26 5 -32 23 -8 23
21 0 19 20 -2 21 -14 0 -13 2 5 9 30 13 28 20 -8 20 -28 0 -30 -2 -30 -40z"/>
<path d="M2937 1713 c-11 -11 -8 -58 5 -71 15 -15 48 -16 48 -2 0 6 -9 10 -20
10 -15 0 -20 7 -20 25 0 18 5 25 20 25 11 0 20 5 20 10 0 11 -43 14 -53 3z"/>
<path d="M3080 1674 c0 -27 4 -43 10 -39 6 3 10 14 11 23 0 12 3 10 10 -6 5
-13 15 -22 21 -20 16 6 24 88 9 88 -6 0 -11 -12 -12 -27 l-1 -28 -10 28 c-16
45 -38 34 -38 -19z"/>
<path d="M3234 1694 c-9 -36 7 -59 42 -59 27 0 29 3 29 40 0 38 -2 40 -32 43
-28 3 -33 0 -39 -24z m56 -19 c0 -18 -5 -25 -20 -25 -15 0 -20 7 -20 25 0 18
5 25 20 25 15 0 20 -7 20 -25z"/>
<path d="M3398 1714 c-12 -12 -9 -59 4 -72 14 -14 48 -16 48 -3 0 5 -9 11 -19
14 -13 3 -21 15 -23 37 -2 17 -6 28 -10 24z"/>
<path d="M3534 1694 c-9 -36 7 -59 42 -59 27 0 29 3 29 40 0 38 -2 40 -32 43
-28 3 -33 0 -39 -24z m56 -20 c0 -33 -33 -30 -38 4 -3 17 2 22 17 22 16 0 21
-6 21 -26z"/>
<path d="M3694 1693 c-9 -34 7 -58 37 -58 19 0 25 6 27 28 2 19 -1 27 -12 27
-19 0 -30 -17 -14 -23 7 -2 10 -8 6 -12 -11 -11 -28 4 -28 26 0 12 7 19 19 19
11 0 23 5 26 10 4 6 -6 10 -24 10 -25 0 -32 -5 -37 -27z"/>
<path d="M3850 1674 c0 -27 4 -43 10 -39 6 3 10 24 10 46 0 21 -4 39 -10 39
-5 0 -10 -21 -10 -46z"/>
<path d="M3969 1693 c-5 -16 -11 -33 -14 -40 -6 -19 6 -23 22 -7 14 13 17 13
34 -2 22 -20 23 -15 7 37 -13 46 -34 50 -49 12z"/>
</g>
</svg>
